<?xml version="1.0" standalone="no"?>
<!DOCTYPE svg PUBLIC "-//W3C//DTD SVG 20010904//EN"
 "http://www.w3.org/TR/2001/REC-SVG-20010904/DTD/svg10.dtd">
<svg version="1.0" xmlns="http://www.w3.org/2000/svg"
 width="512.000000pt" height="512.000000pt" viewBox="0 0 512.000000 512.000000"
 preserveAspectRatio="xMidYMid meet">
<metadata>
Created by potrace 1.14, written by Peter Selinger 2001-2017
</metadata>
<g transform="translate(0.000000,512.000000) scale(0.100000,-0.100000)"
fill="#000000" stroke="none">
<path d="M2362 4832 c-30 -2 -40 -7 -35 -15 5 -9 2 -8 -9 0 -8 7 -17 11 -19 9
-4 -4 -109 -19 -136 -19 -7 0 -13 -3 -13 -6 0 -3 -19 -7 -43 -8 -23 -2 -43 -7
-45 -13 -2 -6 -8 -8 -13 -5 -13 9 -224 -49 -243 -67 -6 -4 -16 -8 -24 -8 -21
0 -272 -111 -272 -121 0 -4 -10 -9 -22 -11 -13 -2 -22 -9 -20 -16 1 -8 -2 -11
-8 -7 -15 9 -102 -44 -94 -57 4 -7 2 -8 -4 -4 -12 7 -72 -22 -72 -35 0 -4 -9
-9 -21 -12 -12 -3 -18 -10 -14 -17 3 -6 3 -10 -2 -9 -21 4 -34 -2 -27 -13 5
-7 3 -8 -6 -3 -7 4 -15 3 -19 -2 -3 -5 -21 -19 -39 -32 -18 -12 -29 -27 -26
-33 4 -6 2 -8 -3 -5 -6 4 -31 -13 -57 -36 -25 -24 -46 -42 -46 -40 0 2 -13 -9
-30 -23 -16 -15 -27 -31 -23 -37 3 -6 1 -7 -4 -4 -13 8 -135 -122 -127 -135 3
-5 0 -7 -8 -6 -7 2 -12 -5 -12 -14 1 -9 -4 -14 -10 -12 -6 2 -22 -14 -36 -36
-14 -22 -28 -40 -31 -40 -4 0 -20 -20 -36 -45 -22 -36 -32 -45 -48 -40 -79 22
-231 39 -239 26 -3 -4 -7 -23 -8 -40 l-2 -33 -18 22 c-10 12 -18 17 -18 11 0
-6 -8 -8 -17 -5 -10 3 -7 -2 7 -10 22 -14 22 -15 5 -14 -44 3 -53 -2 -51 -26
2 -17 -1 -23 -10 -19 -8 3 -11 9 -8 14 3 5 0 9 -5 9 -6 0 -11 -9 -11 -20 0
-12 -13 -28 -31 -39 -17 -10 -26 -20 -19 -23 6 -2 12 -10 13 -18 2 -8 7 -22
12 -30 8 -13 7 -13 -8 -1 -9 7 -15 17 -12 21 3 5 1 12 -5 15 -7 4 -10 -19 -8
-69 1 -41 6 -73 10 -70 4 3 8 0 8 -5 0 -6 -4 -11 -10 -11 -5 0 -10 -7 -10 -15
0 -8 5 -15 11 -15 5 0 7 5 3 12 -5 7 -3 8 6 3 10 -6 10 -10 -2 -19 -14 -10
-21 -76 -8 -76 3 0 12 6 20 13 12 10 12 9 1 -5 -7 -9 -9 -23 -5 -30 5 -9 2 -8
-10 2 -17 13 -18 12 -15 -20 2 -19 9 -41 16 -48 12 -13 7 -46 -6 -37 -4 2 -8
-14 -9 -35 -1 -22 2 -40 7 -40 5 0 12 -7 15 -16 5 -14 4 -15 -8 -5 -11 9 -14
7 -14 -14 1 -23 9 -30 31 -26 4 0 7 -4 7 -10 0 -6 -8 -8 -19 -4 -21 6 -34 -14
-21 -35 5 -8 5 -21 0 -30 -5 -9 -5 -22 1 -31 12 -19 11 -32 -2 -23 -8 4 -8 1
-1 -12 5 -11 7 -26 4 -34 -4 -11 -2 -13 9 -5 8 6 7 3 -3 -6 -20 -19 -12 -35 9
-17 11 8 12 7 7 -6 -3 -9 -10 -16 -15 -16 -5 0 -9 -34 -8 -75 1 -41 6 -75 11
-75 5 0 7 4 4 8 -2 4 0 14 5 22 7 11 8 9 6 -8 -2 -13 -8 -27 -13 -30 -6 -4
-11 -18 -11 -32 l-2 -25 14 25 c8 14 14 20 15 15 0 -6 -7 -21 -16 -33 -8 -12
-11 -22 -6 -22 6 0 13 -7 16 -16 5 -14 4 -15 -8 -5 -13 11 -15 5 -14 -42 1
-31 6 -54 10 -51 4 3 8 0 8 -5 0 -6 -4 -11 -10 -11 -5 0 -10 -5 -10 -11 0 -5
5 -7 10 -4 6 3 10 1 10 -4 0 -6 -4 -11 -10 -11 -5 0 -10 -5 -10 -11 0 -5 5 -7
10 -4 6 3 10 1 10 -4 0 -6 -4 -11 -10 -11 -5 0 -10 -5 -10 -11 0 -5 4 -8 9 -5
5 3 11 -1 14 -9 4 -9 1 -12 -9 -8 -11 4 -14 -2 -12 -26 1 -17 8 -33 15 -35 15
-6 18 -36 3 -36 -5 0 -7 7 -4 15 4 8 1 15 -5 15 -7 0 -10 -21 -10 -55 1 -41 6
-55 18 -58 14 -4 13 -5 -1 -6 -10 0 -18 -6 -18 -12 0 -6 7 -9 15 -5 8 3 15 1
15 -4 0 -6 -7 -10 -15 -10 -20 0 -19 -9 3 -34 16 -20 16 -20 0 -7 -16 12 -18
11 -18 -3 0 -9 6 -16 13 -16 8 0 8 -3 2 -8 -17 -11 -17 -62 0 -78 8 -8 11 -22
8 -31 -4 -11 -3 -14 5 -9 7 4 12 2 12 -3 0 -15 -13 -14 -29 2 -11 10 -13 10
-7 -1 4 -6 2 -12 -4 -12 -6 0 -9 -4 -5 -10 3 -5 13 -7 23 -4 16 5 16 5 0 -6
-23 -14 -23 -31 0 -24 11 4 10 1 -4 -8 -16 -9 -19 -18 -14 -33 4 -11 5 -26 3
-32 -3 -7 0 -13 7 -13 6 0 9 4 5 9 -3 5 -1 12 4 15 5 4 8 -2 6 -11 -2 -10 -4
-22 -4 -26 -1 -5 -6 -5 -11 -2 -6 3 -10 1 -10 -4 0 -6 4 -11 9 -11 17 0 20
-29 6 -44 -8 -8 -15 -21 -15 -28 0 -10 3 -9 10 2 6 10 10 11 10 3 0 -7 7 -13
16 -13 14 0 14 3 4 15 -11 13 -10 14 4 9 9 -3 16 -10 16 -15 0 -5 12 -9 26 -9
16 0 23 -4 18 -12 -4 -7 -3 -8 4 -4 6 4 8 14 5 24 -6 15 -5 16 12 2 10 -8 16
-10 12 -4 -4 7 0 15 9 18 8 3 12 2 9 -3 -3 -5 -1 -12 5 -16 6 -4 7 -11 4 -17
-5 -8 -1 -9 10 -5 9 4 15 3 11 -2 -8 -14 56 -171 68 -164 6 3 7 1 3 -6 -7 -11
59 -160 77 -172 5 -3 9 -10 9 -15 -1 -18 41 -83 50 -78 5 3 7 2 6 -3 -4 -12
34 -83 44 -83 5 0 8 -7 8 -15 0 -7 8 -19 18 -24 9 -6 13 -11 9 -11 -5 0 3 -15
17 -33 15 -17 30 -36 34 -42 47 -63 86 -104 95 -98 6 3 7 1 3 -5 -4 -7 -2 -12
5 -12 7 0 9 -3 6 -7 -7 -7 219 -233 233 -233 4 0 27 -18 51 -39 23 -22 46 -38
51 -35 4 3 8 1 8 -5 0 -15 90 -72 102 -65 6 4 8 3 5 -2 -6 -11 57 -57 78 -57
8 0 12 -4 9 -8 -2 -4 6 -11 18 -15 13 -4 25 -10 28 -14 10 -14 173 -90 181
-84 5 3 9 1 9 -4 0 -5 26 -20 58 -32 89 -35 117 -45 122 -46 3 0 12 -3 20 -7
19 -7 82 -26 106 -32 10 -3 46 -12 79 -20 33 -9 74 -18 90 -19 17 -2 30 -5 30
-6 0 -6 163 -27 268 -34 51 -4 66 -2 60 7 -4 8 -2 8 9 -1 11 -9 47 -12 120
-11 56 2 106 4 111 7 4 2 38 5 75 7 67 3 134 12 162 22 8 3 35 7 60 9 25 2 46
8 48 13 2 5 12 7 22 4 12 -3 20 0 20 6 0 7 4 10 9 6 12 -7 134 26 142 38 3 5
9 8 13 8 3 -1 7 -1 9 0 1 0 10 2 19 4 41 8 88 27 88 36 0 6 4 8 9 5 11 -7 153
52 163 68 4 6 8 8 8 3 0 -7 121 55 150 77 8 7 32 21 53 31 20 11 37 23 37 27
0 5 5 8 10 8 20 0 80 45 75 57 -2 7 2 10 10 7 7 -3 22 3 33 14 11 11 26 24 35
28 64 38 292 258 282 273 -3 7 -1 10 6 9 16 -4 141 150 133 163 -3 5 -1 8 5 7
8 -2 111 134 111 147 0 2 11 21 25 41 14 20 22 41 18 47 -3 5 -2 7 4 4 5 -3
20 16 32 43 13 30 27 47 33 44 7 -4 8 -2 4 4 -4 7 -2 20 3 29 6 10 11 14 11 8
0 -5 4 -4 8 3 5 7 58 63 119 126 61 62 126 137 146 168 89 139 142 294 153
444 l7 81 -94 0 c-52 1 -103 1 -114 2 -19 1 -20 8 -21 164 0 135 -7 272 -14
272 -1 0 -3 20 -5 45 -2 25 -9 63 -14 85 -6 22 -13 58 -17 80 -4 22 -8 42 -9
45 -1 3 -5 22 -9 43 -5 20 -12 40 -17 43 -5 3 -7 10 -4 15 4 5 3 15 -2 22 -4
6 -8 14 -8 17 -5 38 -103 278 -147 360 -100 183 -120 214 -133 202 -5 -4 -5
-2 -1 5 9 16 -23 65 -38 56 -6 -3 -8 -2 -3 2 6 7 -9 37 -35 70 -63 78 -82 100
-90 97 -5 -1 -7 2 -4 7 10 16 -240 261 -328 320 -12 8 -23 18 -26 21 -11 14
-169 119 -220 146 -30 16 -57 31 -60 34 -6 7 -155 85 -155 81 0 -2 -61 22
-110 44 -59 26 -278 92 -333 100 -15 2 -38 7 -52 10 -106 25 -227 37 -410 39
-102 1 -204 0 -228 -2z m281 -27 c-3 -9 -8 -14 -10 -11 -3 3 -2 9 2 15 9 16
15 13 8 -4z m88 -282 c13 -16 12 -17 -3 -4 -10 7 -18 15 -18 17 0 8 8 3 21
-13z m1072 -198 c-3 -9 -8 -14 -10 -11 -3 3 -2 9 2 15 9 16 15 13 8 -4z m-436
-90 c0 -8 -4 -12 -9 -9 -5 3 -6 10 -3 15 9 13 12 11 12 -6z m-2072 -195 c-3
-5 -12 -10 -18 -10 -7 0 -6 4 3 10 19 12 23 12 15 0z m150 -119 c3 -5 2 -12
-3 -15 -5 -3 -9 1 -9 9 0 17 3 19 12 6z m2279 -91 c-6 -6 -10 -3 -10 10 0 13
4 16 10 10 7 -7 7 -13 0 -20z m-2434 10 c0 -5 -2 -10 -4 -10 -3 0 -8 5 -11 10
-3 6 -1 10 4 10 6 0 11 -4 11 -10z m3160 -144 c0 -2 -8 -10 -17 -17 -16 -13
-17 -12 -4 4 13 16 21 21 21 13z m-4196 -76 c-6 -6 -10 -3 -10 10 0 13 4 16
10 10 7 -7 7 -13 0 -20z m11 -20 c-3 -5 -12 -10 -18 -10 -7 0 -6 4 3 10 19 12
23 12 15 0z m1139 -86 c3 -8 2 -12 -4 -9 -6 3 -10 10 -10 16 0 14 7 11 14 -7z
m997 -7 c-10 -9 -11 -8 -5 6 3 10 9 15 12 12 3 -3 0 -11 -7 -18z m-2150 -44
c-12 -20 -14 -14 -5 12 4 9 9 14 11 11 3 -2 0 -13 -6 -23z m3 -89 c3 -8 2 -12
-4 -9 -6 3 -10 10 -10 16 0 14 7 11 14 -7z m11 -94 c3 -5 1 -10 -4 -10 -6 0
-11 5 -11 10 0 6 2 10 4 10 3 0 8 -4 11 -10z m-7 -160 c7 -11 11 -20 9 -20 -2
0 -12 9 -22 20 -10 11 -14 20 -9 20 5 0 15 -9 22 -20z m2 -62 c0 -6 -6 -5 -15
2 -8 7 -15 14 -15 16 0 2 7 1 15 -2 8 -4 15 -11 15 -16z m4160 -14 c0 -8 -19
-13 -24 -6 -3 5 1 9 9 9 8 0 15 -2 15 -3z m-4156 -19 c-4 -8 -11 -15 -16 -15
-6 0 -5 6 2 15 7 8 14 15 16 15 2 0 1 -7 -2 -15z m-9 -134 c0 -22 -3 -42 -6
-45 -4 -4 -5 73 0 82 4 8 6 -3 6 -37z m5 -247 c0 -8 -4 -14 -8 -14 -4 0 -8 9
-8 19 0 11 4 17 8 15 4 -3 8 -12 8 -20z m-6 -190 c3 -8 2 -12 -4 -9 -6 3 -10
10 -10 16 0 14 7 11 14 -7z m-3 -127 c-10 -9 -11 -8 -5 6 3 10 9 15 12 12 3
-3 0 -11 -7 -18z m9 -147 c0 -5 -2 -10 -4 -10 -3 0 -8 5 -11 10 -3 6 -1 10 4
10 6 0 11 -4 11 -10z m1031 -97 c13 -16 12 -17 -3 -4 -10 7 -18 15 -18 17 0 8
8 3 21 -13z m-1038 -88 c-3 -9 -8 -14 -10 -11 -3 3 -2 9 2 15 9 16 15 13 8 -4z
m77 -147 c0 -4 -4 -8 -9 -8 -6 0 -12 4 -15 8 -3 5 1 9 9 9 8 0 15 -4 15 -9z
m1275 3 c3 -5 2 -12 -3 -15 -5 -3 -9 1 -9 9 0 17 3 19 12 6z m-470 -531 c3 -6
-1 -7 -9 -4 -18 7 -21 14 -7 14 6 0 13 -4 16 -10z m556 -37 c13 -16 12 -17 -3
-4 -10 7 -18 15 -18 17 0 8 8 3 21 -13z m39 -37 c0 -3 -4 -8 -10 -11 -5 -3
-10 -1 -10 4 0 6 5 11 10 11 6 0 10 -2 10 -4z m2450 -200 c0 -2 -8 -10 -17
-17 -16 -13 -17 -12 -4 4 13 16 21 21 21 13z m-1690 -50 c-7 -7 -13 -7 -20 0
-6 6 -3 10 10 10 13 0 16 -4 10 -10z m1357 -111 c0 -8 -4 -12 -9 -9 -5 3 -6
10 -3 15 9 13 12 11 12 -6z m-44 -80 c-3 -9 -8 -14 -10 -11 -3 3 -2 9 2 15 9
16 15 13 8 -4z"/>
<path d="M230 3330 c0 -5 5 -10 11 -10 5 0 7 5 4 10 -3 6 -8 10 -11 10 -2 0
-4 -4 -4 -10z"/>
<path d="M230 2110 c0 -5 5 -10 11 -10 5 0 7 5 4 10 -3 6 -8 10 -11 10 -2 0
-4 -4 -4 -10z"/>
<path d="M230 1884 c0 -8 5 -12 10 -9 6 4 8 11 5 16 -9 14 -15 11 -15 -7z"/>
</g>
</svg>
