<svg width="180" height="120" viewBox="0 0 180 120" fill="none" xmlns="http://www.w3.org/2000/svg">
<g clip-path="url(#clip0_3_1055)">
<g opacity="0.5" filter="url(#filter0_d_3_1055)">
<path fill-rule="evenodd" clip-rule="evenodd" d="M103.015 68.7075H103L103 67.7099C103 67.7091 103 67.7083 103 67.7075L103 36C120.576 36 134.842 50.1691 134.999 67.7075L167 67.7075C167 85.3806 152.673 99.7075 135 99.7075C117.662 99.7075 103.544 85.9179 103.015 68.7075Z" fill="url(#paint0_linear_3_1055)"/>
</g>
<g opacity="0.5" filter="url(#filter1_d_3_1055)">
<path fill-rule="evenodd" clip-rule="evenodd" d="M104.015 67.7075H104L104 66.7099C104 66.7091 104 66.7083 104 66.7075L104 35C121.576 35 135.842 49.1691 135.999 66.7075L168 66.7075C168 84.3806 153.673 98.7075 136 98.7075C118.662 98.7075 104.544 84.9179 104.015 67.7075Z" fill="url(#paint1_linear_3_1055)"/>
</g>
<g opacity="0.5" filter="url(#filter2_d_3_1055)">
<path fill-rule="evenodd" clip-rule="evenodd" d="M105.015 66.7075H105L105 65.7099C105 65.7091 105 65.7083 105 65.7075L105 34C122.576 34 136.842 48.1691 136.999 65.7075L169 65.7075C169 83.3806 154.673 97.7075 137 97.7075C119.662 97.7075 105.544 83.9179 105.015 66.7075Z" fill="url(#paint2_linear_3_1055)"/>
</g>
<g opacity="0.5" filter="url(#filter3_d_3_1055)">
<path fill-rule="evenodd" clip-rule="evenodd" d="M106.015 65.7075H106L106 64.7099C106 64.7091 106 64.7083 106 64.7075L106 33C123.576 33 137.842 47.1691 137.999 64.7075L170 64.7075C170 82.3806 155.673 96.7075 138 96.7075C120.662 96.7075 106.544 82.9179 106.015 65.7075Z" fill="url(#paint3_linear_3_1055)"/>
</g>
<g opacity="0.5" filter="url(#filter4_d_3_1055)">
<path fill-rule="evenodd" clip-rule="evenodd" d="M107.015 64.7075H107L107 63.7099C107 63.7091 107 63.7083 107 63.7075L107 32C124.576 32 138.842 46.1691 138.999 63.7075L171 63.7075C171 81.3806 156.673 95.7075 139 95.7075C121.662 95.7075 107.544 81.9179 107.015 64.7075Z" fill="url(#paint4_linear_3_1055)"/>
</g>
<mask id="path-6-inside-1_3_1055" fill="white">
<path fill-rule="evenodd" clip-rule="evenodd" d="M108 63.7075L139.992 63.7075C139.997 63.4723 140 63.2364 140 63C140 45.3269 125.673 31 108 31L108 63.7075Z"/>
</mask>
<path fill-rule="evenodd" clip-rule="evenodd" d="M108 63.7075L139.992 63.7075C139.997 63.4723 140 63.2364 140 63C140 45.3269 125.673 31 108 31L108 63.7075Z" fill="url(#paint5_linear_3_1055)"/>
<path d="M108 63.7075L107.5 63.7075L107.5 64.2075L108 64.2075L108 63.7075ZM139.992 63.7075L139.992 64.2075L140.482 64.2075L140.492 63.7183L139.992 63.7075ZM108 31L108 30.5L107.5 30.5L107.5 31L108 31ZM108 64.2075L139.992 64.2075L139.992 63.2075L108 63.2075L108 64.2075ZM140.492 63.7183C140.497 63.4795 140.5 63.24 140.5 63L139.5 63C139.5 63.2328 139.498 63.465 139.493 63.6966L140.492 63.7183ZM140.5 63C140.5 45.0507 125.949 30.5 108 30.5L108 31.5C125.397 31.5 139.5 45.603 139.5 63L140.5 63ZM107.5 31L107.5 63.7075L108.5 63.7075L108.5 31L107.5 31Z" fill="white" mask="url(#path-6-inside-1_3_1055)"/>
<mask id="path-8-inside-2_3_1055" fill="white">
<path fill-rule="evenodd" clip-rule="evenodd" d="M108 62.7075C108 80.3806 122.327 94.7075 140 94.7075C157.673 94.7075 172 80.3806 172 62.7075L108 62.7075Z"/>
</mask>
<path fill-rule="evenodd" clip-rule="evenodd" d="M108 62.7075C108 80.3806 122.327 94.7075 140 94.7075C157.673 94.7075 172 80.3806 172 62.7075L108 62.7075Z" fill="url(#paint6_linear_3_1055)"/>
<path d="M108 62.7075L108 62.2075L107.5 62.2075L107.5 62.7075L108 62.7075ZM172 62.7075L172.5 62.7075L172.5 62.2075L172 62.2075L172 62.7075ZM140 94.2075C122.603 94.2075 108.5 80.1044 108.5 62.7075L107.5 62.7075C107.5 80.6567 122.051 95.2075 140 95.2075L140 94.2075ZM171.5 62.7075C171.5 80.1044 157.397 94.2075 140 94.2075L140 95.2075C157.949 95.2075 172.5 80.6567 172.5 62.7075L171.5 62.7075ZM172 62.2075L108 62.2075L108 63.2075L172 63.2075L172 62.2075Z" fill="white" mask="url(#path-8-inside-2_3_1055)"/>
<g opacity="0.5" filter="url(#filter5_d_3_1055)">
<path fill-rule="evenodd" clip-rule="evenodd" d="M114.713 54.0053C122.597 67.6619 119.272 84.7146 107.591 94.5075L115.588 104.764C103.732 114.008 87.4117 113.588 76.1123 104.677C70.9621 108.219 64.7232 110.293 58 110.293L58 46.2925C60.3128 46.2925 62.5683 46.5379 64.7419 47.004C66.5869 45.2213 68.6776 43.6333 71 42.2925C86.3054 33.456 105.876 38.7 114.713 54.0053Z" fill="url(#paint7_linear_3_1055)"/>
</g>
<g opacity="0.5" filter="url(#filter6_d_3_1055)">
<path fill-rule="evenodd" clip-rule="evenodd" d="M115.713 53.0053C123.597 66.662 120.272 83.7146 108.591 93.5075L116.588 103.764C104.732 113.008 88.4117 112.588 77.1123 103.677C71.9621 107.219 65.7232 109.293 59 109.293L59 45.2926C61.3128 45.2926 63.5683 45.5379 65.7419 46.004C67.5869 44.2213 69.6776 42.6334 72 41.2925C87.3054 32.456 106.876 37.7 115.713 53.0053Z" fill="url(#paint8_linear_3_1055)"/>
</g>
<g opacity="0.5" filter="url(#filter7_d_3_1055)">
<path fill-rule="evenodd" clip-rule="evenodd" d="M116.713 52.0053C124.597 65.6619 121.272 82.7146 109.591 92.5075L117.588 102.764C105.732 112.008 89.4117 111.588 78.1122 102.677C72.9621 106.219 66.7231 108.293 59.9999 108.293L59.9999 44.2925C62.3128 44.2925 64.5683 44.5379 66.7418 45.004C68.5869 43.2213 70.6776 41.6333 73 40.2925C88.3053 31.456 107.876 36.7 116.713 52.0053Z" fill="url(#paint9_linear_3_1055)"/>
</g>
<g opacity="0.5" filter="url(#filter8_d_3_1055)">
<path fill-rule="evenodd" clip-rule="evenodd" d="M117.713 51.0053C125.598 64.6619 122.272 81.7146 110.591 91.5075L118.588 101.764C106.732 111.008 90.4118 110.588 79.1123 101.677C73.9622 105.219 67.7233 107.293 61.0001 107.293L61.0001 43.2925C63.3129 43.2925 65.5684 43.5379 67.742 44.004C69.587 42.2213 71.6777 40.6333 74.0001 39.2925C89.3054 30.456 108.876 35.7 117.713 51.0053Z" fill="url(#paint10_linear_3_1055)"/>
</g>
<g opacity="0.5" filter="url(#filter9_d_3_1055)">
<path fill-rule="evenodd" clip-rule="evenodd" d="M118.713 50.0053C126.597 63.6619 123.272 80.7146 111.591 90.5075L119.588 100.764C107.732 110.008 91.4117 109.588 80.1122 100.677C74.9621 104.219 68.7231 106.293 61.9999 106.293L61.9999 42.2925C64.3128 42.2925 66.5683 42.5379 68.7418 43.004C70.5869 41.2213 72.6776 39.6333 75 38.2925C90.3053 29.456 109.876 34.7 118.713 50.0053Z" fill="url(#paint11_linear_3_1055)"/>
</g>
<mask id="path-15-inside-3_3_1055" fill="white">
<path fill-rule="evenodd" clip-rule="evenodd" d="M95.8796 96.7776C100.03 96.2727 104.15 94.9408 108 92.7181C123.305 83.8816 128.549 64.3107 119.713 49.0053C110.876 33.7 91.3053 28.456 76 37.2925C72.1501 39.5152 68.9369 42.4171 66.4242 45.7593L95.8796 96.7776Z"/>
</mask>
<path fill-rule="evenodd" clip-rule="evenodd" d="M95.8796 96.7776C100.03 96.2727 104.15 94.9408 108 92.7181C123.305 83.8816 128.549 64.3107 119.713 49.0053C110.876 33.7 91.3053 28.456 76 37.2925C72.1501 39.5152 68.9369 42.4171 66.4242 45.7593L95.8796 96.7776Z" fill="url(#paint12_linear_3_1055)"/>
<path d="M95.8796 96.7776L95.4466 97.0276L95.6118 97.3138L95.94 97.2739L95.8796 96.7776ZM66.4242 45.7593L66.0245 45.4589L65.8259 45.7231L65.9912 46.0093L66.4242 45.7593ZM107.75 92.2851C103.959 94.4736 99.9045 95.7843 95.8192 96.2812L95.94 97.2739C100.156 96.761 104.341 95.4081 108.25 93.1512L107.75 92.2851ZM119.28 49.2553C127.978 64.3215 122.816 83.5866 107.75 92.2851L108.25 93.1512C123.794 84.1765 129.12 64.2998 120.146 48.7553L119.28 49.2553ZM76.25 37.7255C91.3162 29.027 110.581 34.1891 119.28 49.2553L120.146 48.7553C111.171 33.2108 91.2945 27.8849 75.75 36.8595L76.25 37.7255ZM66.8238 46.0598C69.2968 42.7703 72.4595 39.914 76.25 37.7255L75.75 36.8595C71.8408 39.1165 68.577 42.0638 66.0245 45.4589L66.8238 46.0598ZM65.9912 46.0093L95.4466 97.0276L96.3126 96.5276L66.8572 45.5093L65.9912 46.0093Z" fill="white" mask="url(#path-15-inside-3_3_1055)"/>
<mask id="path-17-inside-4_3_1055" fill="white">
<path fill-rule="evenodd" clip-rule="evenodd" d="M81.2358 49.2926C67.2984 60.1594 64.8092 80.2672 75.6761 94.2046C86.5429 108.142 106.651 110.631 120.588 99.7643L81.2358 49.2926Z"/>
</mask>
<path fill-rule="evenodd" clip-rule="evenodd" d="M81.2358 49.2926C67.2984 60.1594 64.8092 80.2672 75.6761 94.2046C86.5429 108.142 106.651 110.631 120.588 99.7643L81.2358 49.2926Z" fill="url(#paint13_linear_3_1055)"/>
<path d="M81.2358 49.2926L81.6301 48.9851L81.3227 48.5908L80.9284 48.8982L81.2358 49.2926ZM120.588 99.7643L120.896 100.159L121.29 99.8512L120.982 99.4569L120.588 99.7643ZM76.0704 93.8971C65.3733 80.1775 67.8236 60.3839 81.5433 49.6869L80.9284 48.8982C66.7732 59.9349 64.2451 80.3568 75.2818 94.512L76.0704 93.8971ZM120.281 99.37C106.561 110.067 86.7674 107.617 76.0704 93.8971L75.2818 94.512C86.3184 108.667 106.74 111.195 120.896 100.159L120.281 99.37ZM120.982 99.4569L81.6301 48.9851L80.8415 49.6L120.194 100.072L120.982 99.4569Z" fill="white" mask="url(#path-17-inside-4_3_1055)"/>
<mask id="path-19-inside-5_3_1055" fill="white">
<path fill-rule="evenodd" clip-rule="evenodd" d="M62.9999 105.293C80.6731 105.293 94.9999 90.9657 94.9999 73.2925C94.9999 55.6194 80.6731 41.2925 62.9999 41.2925L62.9999 105.293Z"/>
</mask>
<path fill-rule="evenodd" clip-rule="evenodd" d="M62.9999 105.293C80.6731 105.293 94.9999 90.9657 94.9999 73.2925C94.9999 55.6194 80.6731 41.2925 62.9999 41.2925L62.9999 105.293Z" fill="url(#paint14_linear_3_1055)"/>
<path d="M62.9999 105.293L62.4999 105.293L62.4999 105.793L62.9999 105.793L62.9999 105.293ZM62.9999 41.2925L62.9999 40.7925L62.4999 40.7925L62.4999 41.2925L62.9999 41.2925ZM94.4999 73.2925C94.4999 90.6895 80.3969 104.793 62.9999 104.793L62.9999 105.793C80.9492 105.793 95.4999 91.2418 95.4999 73.2925L94.4999 73.2925ZM62.9999 41.7925C80.3969 41.7925 94.4999 55.8956 94.4999 73.2925L95.4999 73.2925C95.4999 55.3433 80.9492 40.7925 62.9999 40.7925L62.9999 41.7925ZM62.4999 41.2925L62.4999 105.293L63.4999 105.293L63.4999 41.2925L62.4999 41.2925Z" fill="white" mask="url(#path-19-inside-5_3_1055)"/>
<g filter="url(#filter10_d_3_1055)">
<g opacity="0.5" filter="url(#filter11_d_3_1055)">
<mask id="path-21-outside-6_3_1055" maskUnits="userSpaceOnUse" x="6" y="17" width="68" height="66" fill="black">
<rect fill="white" x="6" y="17" width="68" height="66"/>
<path fill-rule="evenodd" clip-rule="evenodd" d="M39 50C39 67.6731 24.6731 82 7 82L7.00001 18C24.6731 18 39 32.3269 39 50ZM41 50C41 32.3269 55.3269 18 73 18V82C55.3269 82 41 67.6731 41 50Z"/>
</mask>
<path fill-rule="evenodd" clip-rule="evenodd" d="M39 50C39 67.6731 24.6731 82 7 82L7.00001 18C24.6731 18 39 32.3269 39 50ZM41 50C41 32.3269 55.3269 18 73 18V82C55.3269 82 41 67.6731 41 50Z" fill="url(#paint15_linear_3_1055)"/>
<path d="M7 82L6.5 82L6.5 82.5L7 82.5L7 82ZM39 50L39.5 50V50H39ZM7.00001 18L7.00001 17.5L6.50001 17.5L6.50001 18L7.00001 18ZM73 18H73.5V17.5H73V18ZM73 82V82.5H73.5V82H73ZM7 82.5C24.9493 82.5 39.5 67.9493 39.5 50L38.5 50C38.5 67.397 24.397 81.5 7 81.5L7 82.5ZM6.50001 18L6.5 82L7.5 82L7.50001 18L6.50001 18ZM39.5 50C39.5 32.0508 24.9493 17.5 7.00001 17.5L7.00001 18.5C24.397 18.5 38.5 32.603 38.5 50H39.5ZM73 17.5C55.0507 17.5 40.5 32.0508 40.5 50H41.5C41.5 32.603 55.603 18.5 73 18.5V17.5ZM73.5 82V18H72.5V82H73.5ZM40.5 50C40.5 67.9493 55.0507 82.5 73 82.5V81.5C55.603 81.5 41.5 67.397 41.5 50H40.5Z" fill="#85A8BF" mask="url(#path-21-outside-6_3_1055)"/>
</g>
</g>
<g filter="url(#filter12_d_3_1055)">
<g opacity="0.5" filter="url(#filter13_d_3_1055)">
<mask id="path-23-outside-7_3_1055" maskUnits="userSpaceOnUse" x="7" y="16" width="68" height="66" fill="black">
<rect fill="white" x="7" y="16" width="68" height="66"/>
<path fill-rule="evenodd" clip-rule="evenodd" d="M40 49C40 66.6731 25.6731 81 8 81L8.00001 17C25.6731 17 40 31.3269 40 49ZM42 49C42 31.3269 56.3269 17 74 17V81C56.3269 81 42 66.6731 42 49Z"/>
</mask>
<path fill-rule="evenodd" clip-rule="evenodd" d="M40 49C40 66.6731 25.6731 81 8 81L8.00001 17C25.6731 17 40 31.3269 40 49ZM42 49C42 31.3269 56.3269 17 74 17V81C56.3269 81 42 66.6731 42 49Z" fill="url(#paint16_linear_3_1055)"/>
<path d="M8 81L7.5 81L7.5 81.5L8 81.5L8 81ZM40 49L40.5 49V49H40ZM8.00001 17L8.00001 16.5L7.50001 16.5L7.50001 17L8.00001 17ZM74 17H74.5V16.5H74V17ZM74 81V81.5H74.5V81H74ZM8 81.5C25.9493 81.5 40.5 66.9493 40.5 49L39.5 49C39.5 66.397 25.397 80.5 8 80.5L8 81.5ZM7.50001 17L7.5 81L8.5 81L8.50001 17L7.50001 17ZM40.5 49C40.5 31.0507 25.9493 16.5 8.00001 16.5L8.00001 17.5C25.397 17.5 39.5 31.603 39.5 49H40.5ZM74 16.5C56.0507 16.5 41.5 31.0507 41.5 49H42.5C42.5 31.603 56.603 17.5 74 17.5V16.5ZM74.5 81V17H73.5V81H74.5ZM41.5 49C41.5 66.9493 56.0507 81.5 74 81.5V80.5C56.603 80.5 42.5 66.397 42.5 49H41.5Z" fill="#85A8BF" mask="url(#path-23-outside-7_3_1055)"/>
</g>
</g>
<g filter="url(#filter14_d_3_1055)">
<g opacity="0.5" filter="url(#filter15_d_3_1055)">
<mask id="path-25-outside-8_3_1055" maskUnits="userSpaceOnUse" x="8" y="15" width="68" height="66" fill="black">
<rect fill="white" x="8" y="15" width="68" height="66"/>
<path fill-rule="evenodd" clip-rule="evenodd" d="M41 48C41 65.6731 26.6731 80 9 80L9.00001 16C26.6731 16 41 30.3269 41 48ZM43 48C43 30.3269 57.3269 16 75 16V80C57.3269 80 43 65.6731 43 48Z"/>
</mask>
<path fill-rule="evenodd" clip-rule="evenodd" d="M41 48C41 65.6731 26.6731 80 9 80L9.00001 16C26.6731 16 41 30.3269 41 48ZM43 48C43 30.3269 57.3269 16 75 16V80C57.3269 80 43 65.6731 43 48Z" fill="url(#paint17_linear_3_1055)"/>
<path d="M9 80L8.5 80L8.5 80.5L9 80.5L9 80ZM41 48L41.5 48V48H41ZM9.00001 16L9.00001 15.5L8.50001 15.5L8.50001 16L9.00001 16ZM75 16H75.5V15.5H75V16ZM75 80V80.5H75.5V80H75ZM9 80.5C26.9493 80.5 41.5 65.9493 41.5 48L40.5 48C40.5 65.397 26.397 79.5 9 79.5L9 80.5ZM8.50001 16L8.5 80L9.5 80L9.50001 16L8.50001 16ZM41.5 48C41.5 30.0507 26.9493 15.5 9.00001 15.5L9.00001 16.5C26.397 16.5 40.5 30.603 40.5 48H41.5ZM75 15.5C57.0507 15.5 42.5 30.0507 42.5 48H43.5C43.5 30.603 57.603 16.5 75 16.5V15.5ZM75.5 80V16H74.5V80H75.5ZM42.5 48C42.5 65.9493 57.0507 80.5 75 80.5V79.5C57.603 79.5 43.5 65.397 43.5 48H42.5Z" fill="#85A8BF" mask="url(#path-25-outside-8_3_1055)"/>
</g>
</g>
<g filter="url(#filter16_d_3_1055)">
<g opacity="0.5" filter="url(#filter17_d_3_1055)">
<mask id="path-27-outside-9_3_1055" maskUnits="userSpaceOnUse" x="9" y="14" width="68" height="66" fill="black">
<rect fill="white" x="9" y="14" width="68" height="66"/>
<path fill-rule="evenodd" clip-rule="evenodd" d="M42 47C42 64.6731 27.6731 79 10 79L10 15C27.6731 15 42 29.3269 42 47ZM44 47C44 29.3269 58.3269 15 76 15V79C58.3269 79 44 64.6731 44 47Z"/>
</mask>
<path fill-rule="evenodd" clip-rule="evenodd" d="M42 47C42 64.6731 27.6731 79 10 79L10 15C27.6731 15 42 29.3269 42 47ZM44 47C44 29.3269 58.3269 15 76 15V79C58.3269 79 44 64.6731 44 47Z" fill="url(#paint18_linear_3_1055)"/>
<path d="M10 79L9.5 79L9.5 79.5L10 79.5L10 79ZM42 47L42.5 47V47H42ZM10 15L10 14.5L9.50001 14.5L9.50001 15L10 15ZM76 15H76.5V14.5H76V15ZM76 79V79.5H76.5V79H76ZM10 79.5C27.9493 79.5 42.5 64.9493 42.5 47L41.5 47C41.5 64.397 27.397 78.5 10 78.5L10 79.5ZM9.50001 15L9.5 79L10.5 79L10.5 15L9.50001 15ZM42.5 47C42.5 29.0508 27.9493 14.5 10 14.5L10 15.5C27.397 15.5 41.5 29.603 41.5 47H42.5ZM76 14.5C58.0507 14.5 43.5 29.0508 43.5 47H44.5C44.5 29.603 58.603 15.5 76 15.5V14.5ZM76.5 79V15H75.5V79H76.5ZM43.5 47C43.5 64.9493 58.0507 79.5 76 79.5V78.5C58.603 78.5 44.5 64.397 44.5 47H43.5Z" fill="#85A8BF" mask="url(#path-27-outside-9_3_1055)"/>
</g>
</g>
<g filter="url(#filter18_d_3_1055)">
<g opacity="0.5" filter="url(#filter19_d_3_1055)">
<mask id="path-29-outside-10_3_1055" maskUnits="userSpaceOnUse" x="10.0001" y="13" width="68" height="66" fill="black">
<rect fill="white" x="10.0001" y="13" width="68" height="66"/>
<path fill-rule="evenodd" clip-rule="evenodd" d="M43.0001 46C43.0001 63.6731 28.6732 78 11.0001 78L11.0001 14C28.6732 14 43.0001 28.3269 43.0001 46ZM45.0001 46C45.0001 28.3269 59.327 14 77.0001 14V78C59.327 78 45.0001 63.6731 45.0001 46Z"/>
</mask>
<path fill-rule="evenodd" clip-rule="evenodd" d="M43.0001 46C43.0001 63.6731 28.6732 78 11.0001 78L11.0001 14C28.6732 14 43.0001 28.3269 43.0001 46ZM45.0001 46C45.0001 28.3269 59.327 14 77.0001 14V78C59.327 78 45.0001 63.6731 45.0001 46Z" fill="url(#paint19_linear_3_1055)"/>
<path d="M11.0001 78L10.5001 78L10.5001 78.5L11.0001 78.5L11.0001 78ZM43.0001 46L43.5001 46V46H43.0001ZM11.0001 14L11.0001 13.5L10.5001 13.5L10.5001 14L11.0001 14ZM77.0001 14H77.5001V13.5H77.0001V14ZM77.0001 78V78.5H77.5001V78H77.0001ZM11.0001 78.5C28.9493 78.5 43.5001 63.9493 43.5001 46L42.5001 46C42.5001 63.397 28.397 77.5 11.0001 77.5L11.0001 78.5ZM10.5001 14L10.5001 78L11.5001 78L11.5001 14L10.5001 14ZM43.5001 46C43.5001 28.0508 28.9493 13.5 11.0001 13.5L11.0001 14.5C28.397 14.5 42.5001 28.603 42.5001 46H43.5001ZM77.0001 13.5C59.0508 13.5 44.5001 28.0508 44.5001 46H45.5001C45.5001 28.603 59.6031 14.5 77.0001 14.5V13.5ZM77.5001 78V14H76.5001V78H77.5001ZM44.5001 46C44.5001 63.9493 59.0508 78.5 77.0001 78.5V77.5C59.6031 77.5 45.5001 63.397 45.5001 46H44.5001Z" fill="#85A8BF" mask="url(#path-29-outside-10_3_1055)"/>
</g>
</g>
<mask id="path-31-inside-11_3_1055" fill="white">
<path fill-rule="evenodd" clip-rule="evenodd" d="M45 44C45 61.6731 30.6731 76 13 76L13 12C30.6731 12 45 26.3269 45 44ZM47 44C47 26.3269 61.3269 12 79 12V76C61.3269 76 47 61.6731 47 44Z"/>
</mask>
<path fill-rule="evenodd" clip-rule="evenodd" d="M45 44C45 61.6731 30.6731 76 13 76L13 12C30.6731 12 45 26.3269 45 44ZM47 44C47 26.3269 61.3269 12 79 12V76C61.3269 76 47 61.6731 47 44Z" fill="url(#paint20_linear_3_1055)"/>
<path d="M13 76L12.5 76L12.5 76.5L13 76.5L13 76ZM45 44L45.5 44V44H45ZM13 12L13 11.5L12.5 11.5L12.5 12L13 12ZM79 12H79.5V11.5H79V12ZM79 76V76.5H79.5V76H79ZM13 76.5C30.9493 76.5 45.5 61.9493 45.5 44L44.5 44C44.5 61.397 30.397 75.5 13 75.5L13 76.5ZM12.5 12L12.5 76L13.5 76L13.5 12L12.5 12ZM45.5 44C45.5 26.0508 30.9493 11.5 13 11.5L13 12.5C30.397 12.5 44.5 26.603 44.5 44H45.5ZM79 11.5C61.0507 11.5 46.5 26.0508 46.5 44H47.5C47.5 26.603 61.603 12.5 79 12.5V11.5ZM79.5 76V12H78.5V76H79.5ZM46.5 44C46.5 61.9493 61.0507 76.5 79 76.5V75.5C61.603 75.5 47.5 61.397 47.5 44H46.5Z" fill="white" mask="url(#path-31-inside-11_3_1055)"/>
</g>
<defs>
<filter id="filter0_d_3_1055" x="99.0001" y="33" width="72" height="71.7075" filterUnits="userSpaceOnUse" color-interpolation-filters="sRGB">
<feFlood flood-opacity="0" result="BackgroundImageFix"/>
<feColorMatrix in="SourceAlpha" type="matrix" values="0 0 0 0 0 0 0 0 0 0 0 0 0 0 0 0 0 0 127 0" result="hardAlpha"/>
<feOffset dy="1"/>
<feGaussianBlur stdDeviation="2"/>
<feComposite in2="hardAlpha" operator="out"/>
<feColorMatrix type="matrix" values="0 0 0 0 0 0 0 0 0 0 0 0 0 0 0 0 0 0 0.1 0"/>
<feBlend mode="normal" in2="BackgroundImageFix" result="effect1_dropShadow_3_1055"/>
<feBlend mode="normal" in="SourceGraphic" in2="effect1_dropShadow_3_1055" result="shape"/>
</filter>
<filter id="filter1_d_3_1055" x="100" y="32" width="72" height="71.7075" filterUnits="userSpaceOnUse" color-interpolation-filters="sRGB">
<feFlood flood-opacity="0" result="BackgroundImageFix"/>
<feColorMatrix in="SourceAlpha" type="matrix" values="0 0 0 0 0 0 0 0 0 0 0 0 0 0 0 0 0 0 127 0" result="hardAlpha"/>
<feOffset dy="1"/>
<feGaussianBlur stdDeviation="2"/>
<feComposite in2="hardAlpha" operator="out"/>
<feColorMatrix type="matrix" values="0 0 0 0 0 0 0 0 0 0 0 0 0 0 0 0 0 0 0.1 0"/>
<feBlend mode="normal" in2="BackgroundImageFix" result="effect1_dropShadow_3_1055"/>
<feBlend mode="normal" in="SourceGraphic" in2="effect1_dropShadow_3_1055" result="shape"/>
</filter>
<filter id="filter2_d_3_1055" x="101" y="31" width="72" height="71.7075" filterUnits="userSpaceOnUse" color-interpolation-filters="sRGB">
<feFlood flood-opacity="0" result="BackgroundImageFix"/>
<feColorMatrix in="SourceAlpha" type="matrix" values="0 0 0 0 0 0 0 0 0 0 0 0 0 0 0 0 0 0 127 0" result="hardAlpha"/>
<feOffset dy="1"/>
<feGaussianBlur stdDeviation="2"/>
<feComposite in2="hardAlpha" operator="out"/>
<feColorMatrix type="matrix" values="0 0 0 0 0 0 0 0 0 0 0 0 0 0 0 0 0 0 0.1 0"/>
<feBlend mode="normal" in2="BackgroundImageFix" result="effect1_dropShadow_3_1055"/>
<feBlend mode="normal" in="SourceGraphic" in2="effect1_dropShadow_3_1055" result="shape"/>
</filter>
<filter id="filter3_d_3_1055" x="102" y="30" width="72" height="71.7075" filterUnits="userSpaceOnUse" color-interpolation-filters="sRGB">
<feFlood flood-opacity="0" result="BackgroundImageFix"/>
<feColorMatrix in="SourceAlpha" type="matrix" values="0 0 0 0 0 0 0 0 0 0 0 0 0 0 0 0 0 0 127 0" result="hardAlpha"/>
<feOffset dy="1"/>
<feGaussianBlur stdDeviation="2"/>
<feComposite in2="hardAlpha" operator="out"/>
<feColorMatrix type="matrix" values="0 0 0 0 0 0 0 0 0 0 0 0 0 0 0 0 0 0 0.1 0"/>
<feBlend mode="normal" in2="BackgroundImageFix" result="effect1_dropShadow_3_1055"/>
<feBlend mode="normal" in="SourceGraphic" in2="effect1_dropShadow_3_1055" result="shape"/>
</filter>
<filter id="filter4_d_3_1055" x="103" y="29" width="72" height="71.7075" filterUnits="userSpaceOnUse" color-interpolation-filters="sRGB">
<feFlood flood-opacity="0" result="BackgroundImageFix"/>
<feColorMatrix in="SourceAlpha" type="matrix" values="0 0 0 0 0 0 0 0 0 0 0 0 0 0 0 0 0 0 127 0" result="hardAlpha"/>
<feOffset dy="1"/>
<feGaussianBlur stdDeviation="2"/>
<feComposite in2="hardAlpha" operator="out"/>
<feColorMatrix type="matrix" values="0 0 0 0 0 0 0 0 0 0 0 0 0 0 0 0 0 0 0.1 0"/>
<feBlend mode="normal" in2="BackgroundImageFix" result="effect1_dropShadow_3_1055"/>
<feBlend mode="normal" in="SourceGraphic" in2="effect1_dropShadow_3_1055" result="shape"/>
</filter>
<filter id="filter5_d_3_1055" x="54" y="35" width="69.0054" height="81.5299" filterUnits="userSpaceOnUse" color-interpolation-filters="sRGB">
<feFlood flood-opacity="0" result="BackgroundImageFix"/>
<feColorMatrix in="SourceAlpha" type="matrix" values="0 0 0 0 0 0 0 0 0 0 0 0 0 0 0 0 0 0 127 0" result="hardAlpha"/>
<feOffset dy="1"/>
<feGaussianBlur stdDeviation="2"/>
<feComposite in2="hardAlpha" operator="out"/>
<feColorMatrix type="matrix" values="0 0 0 0 0 0 0 0 0 0 0 0 0 0 0 0 0 0 0.1 0"/>
<feBlend mode="normal" in2="BackgroundImageFix" result="effect1_dropShadow_3_1055"/>
<feBlend mode="normal" in="SourceGraphic" in2="effect1_dropShadow_3_1055" result="shape"/>
</filter>
<filter id="filter6_d_3_1055" x="55" y="34" width="69.0054" height="81.5299" filterUnits="userSpaceOnUse" color-interpolation-filters="sRGB">
<feFlood flood-opacity="0" result="BackgroundImageFix"/>
<feColorMatrix in="SourceAlpha" type="matrix" values="0 0 0 0 0 0 0 0 0 0 0 0 0 0 0 0 0 0 127 0" result="hardAlpha"/>
<feOffset dy="1"/>
<feGaussianBlur stdDeviation="2"/>
<feComposite in2="hardAlpha" operator="out"/>
<feColorMatrix type="matrix" values="0 0 0 0 0 0 0 0 0 0 0 0 0 0 0 0 0 0 0.1 0"/>
<feBlend mode="normal" in2="BackgroundImageFix" result="effect1_dropShadow_3_1055"/>
<feBlend mode="normal" in="SourceGraphic" in2="effect1_dropShadow_3_1055" result="shape"/>
</filter>
<filter id="filter7_d_3_1055" x="55.9999" y="33" width="69.0054" height="81.5299" filterUnits="userSpaceOnUse" color-interpolation-filters="sRGB">
<feFlood flood-opacity="0" result="BackgroundImageFix"/>
<feColorMatrix in="SourceAlpha" type="matrix" values="0 0 0 0 0 0 0 0 0 0 0 0 0 0 0 0 0 0 127 0" result="hardAlpha"/>
<feOffset dy="1"/>
<feGaussianBlur stdDeviation="2"/>
<feComposite in2="hardAlpha" operator="out"/>
<feColorMatrix type="matrix" values="0 0 0 0 0 0 0 0 0 0 0 0 0 0 0 0 0 0 0.1 0"/>
<feBlend mode="normal" in2="BackgroundImageFix" result="effect1_dropShadow_3_1055"/>
<feBlend mode="normal" in="SourceGraphic" in2="effect1_dropShadow_3_1055" result="shape"/>
</filter>
<filter id="filter8_d_3_1055" x="57.0001" y="32" width="69.0054" height="81.5299" filterUnits="userSpaceOnUse" color-interpolation-filters="sRGB">
<feFlood flood-opacity="0" result="BackgroundImageFix"/>
<feColorMatrix in="SourceAlpha" type="matrix" values="0 0 0 0 0 0 0 0 0 0 0 0 0 0 0 0 0 0 127 0" result="hardAlpha"/>
<feOffset dy="1"/>
<feGaussianBlur stdDeviation="2"/>
<feComposite in2="hardAlpha" operator="out"/>
<feColorMatrix type="matrix" values="0 0 0 0 0 0 0 0 0 0 0 0 0 0 0 0 0 0 0.1 0"/>
<feBlend mode="normal" in2="BackgroundImageFix" result="effect1_dropShadow_3_1055"/>
<feBlend mode="normal" in="SourceGraphic" in2="effect1_dropShadow_3_1055" result="shape"/>
</filter>
<filter id="filter9_d_3_1055" x="57.9999" y="31" width="69.0054" height="81.5299" filterUnits="userSpaceOnUse" color-interpolation-filters="sRGB">
<feFlood flood-opacity="0" result="BackgroundImageFix"/>
<feColorMatrix in="SourceAlpha" type="matrix" values="0 0 0 0 0 0 0 0 0 0 0 0 0 0 0 0 0 0 127 0" result="hardAlpha"/>
<feOffset dy="1"/>
<feGaussianBlur stdDeviation="2"/>
<feComposite in2="hardAlpha" operator="out"/>
<feColorMatrix type="matrix" values="0 0 0 0 0 0 0 0 0 0 0 0 0 0 0 0 0 0 0.1 0"/>
<feBlend mode="normal" in2="BackgroundImageFix" result="effect1_dropShadow_3_1055"/>
<feBlend mode="normal" in="SourceGraphic" in2="effect1_dropShadow_3_1055" result="shape"/>
</filter>
<filter id="filter10_d_3_1055" x="-4" y="7" width="88" height="88" filterUnits="userSpaceOnUse" color-interpolation-filters="sRGB">
<feFlood flood-opacity="0" result="BackgroundImageFix"/>
<feColorMatrix in="SourceAlpha" type="matrix" values="0 0 0 0 0 0 0 0 0 0 0 0 0 0 0 0 0 0 127 0" result="hardAlpha"/>
<feOffset dy="1"/>
<feGaussianBlur stdDeviation="2"/>
<feComposite in2="hardAlpha" operator="out"/>
<feColorMatrix type="matrix" values="0 0 0 0 0 0 0 0 0 0 0 0 0 0 0 0 0 0 0.1 0"/>
<feBlend mode="normal" in2="BackgroundImageFix" result="effect1_dropShadow_3_1055"/>
<feBlend mode="normal" in="SourceGraphic" in2="effect1_dropShadow_3_1055" result="shape"/>
</filter>
<filter id="filter11_d_3_1055" x="2.5" y="14.5" width="75" height="73" filterUnits="userSpaceOnUse" color-interpolation-filters="sRGB">
<feFlood flood-opacity="0" result="BackgroundImageFix"/>
<feColorMatrix in="SourceAlpha" type="matrix" values="0 0 0 0 0 0 0 0 0 0 0 0 0 0 0 0 0 0 127 0" result="hardAlpha"/>
<feOffset dy="1"/>
<feGaussianBlur stdDeviation="2"/>
<feComposite in2="hardAlpha" operator="out"/>
<feColorMatrix type="matrix" values="0 0 0 0 0 0 0 0 0 0 0 0 0 0 0 0 0 0 0.1 0"/>
<feBlend mode="normal" in2="BackgroundImageFix" result="effect1_dropShadow_3_1055"/>
<feBlend mode="normal" in="SourceGraphic" in2="effect1_dropShadow_3_1055" result="shape"/>
</filter>
<filter id="filter12_d_3_1055" x="-3" y="5.99999" width="88" height="88" filterUnits="userSpaceOnUse" color-interpolation-filters="sRGB">
<feFlood flood-opacity="0" result="BackgroundImageFix"/>
<feColorMatrix in="SourceAlpha" type="matrix" values="0 0 0 0 0 0 0 0 0 0 0 0 0 0 0 0 0 0 127 0" result="hardAlpha"/>
<feOffset dy="1"/>
<feGaussianBlur stdDeviation="2"/>
<feComposite in2="hardAlpha" operator="out"/>
<feColorMatrix type="matrix" values="0 0 0 0 0 0 0 0 0 0 0 0 0 0 0 0 0 0 0.1 0"/>
<feBlend mode="normal" in2="BackgroundImageFix" result="effect1_dropShadow_3_1055"/>
<feBlend mode="normal" in="SourceGraphic" in2="effect1_dropShadow_3_1055" result="shape"/>
</filter>
<filter id="filter13_d_3_1055" x="3.5" y="13.5" width="75" height="73" filterUnits="userSpaceOnUse" color-interpolation-filters="sRGB">
<feFlood flood-opacity="0" result="BackgroundImageFix"/>
<feColorMatrix in="SourceAlpha" type="matrix" values="0 0 0 0 0 0 0 0 0 0 0 0 0 0 0 0 0 0 127 0" result="hardAlpha"/>
<feOffset dy="1"/>
<feGaussianBlur stdDeviation="2"/>
<feComposite in2="hardAlpha" operator="out"/>
<feColorMatrix type="matrix" values="0 0 0 0 0 0 0 0 0 0 0 0 0 0 0 0 0 0 0.1 0"/>
<feBlend mode="normal" in2="BackgroundImageFix" result="effect1_dropShadow_3_1055"/>
<feBlend mode="normal" in="SourceGraphic" in2="effect1_dropShadow_3_1055" result="shape"/>
</filter>
<filter id="filter14_d_3_1055" x="-2" y="4.99999" width="88" height="88" filterUnits="userSpaceOnUse" color-interpolation-filters="sRGB">
<feFlood flood-opacity="0" result="BackgroundImageFix"/>
<feColorMatrix in="SourceAlpha" type="matrix" values="0 0 0 0 0 0 0 0 0 0 0 0 0 0 0 0 0 0 127 0" result="hardAlpha"/>
<feOffset dy="1"/>
<feGaussianBlur stdDeviation="2"/>
<feComposite in2="hardAlpha" operator="out"/>
<feColorMatrix type="matrix" values="0 0 0 0 0 0 0 0 0 0 0 0 0 0 0 0 0 0 0.1 0"/>
<feBlend mode="normal" in2="BackgroundImageFix" result="effect1_dropShadow_3_1055"/>
<feBlend mode="normal" in="SourceGraphic" in2="effect1_dropShadow_3_1055" result="shape"/>
</filter>
<filter id="filter15_d_3_1055" x="4.5" y="12.5" width="75" height="73" filterUnits="userSpaceOnUse" color-interpolation-filters="sRGB">
<feFlood flood-opacity="0" result="BackgroundImageFix"/>
<feColorMatrix in="SourceAlpha" type="matrix" values="0 0 0 0 0 0 0 0 0 0 0 0 0 0 0 0 0 0 127 0" result="hardAlpha"/>
<feOffset dy="1"/>
<feGaussianBlur stdDeviation="2"/>
<feComposite in2="hardAlpha" operator="out"/>
<feColorMatrix type="matrix" values="0 0 0 0 0 0 0 0 0 0 0 0 0 0 0 0 0 0 0.1 0"/>
<feBlend mode="normal" in2="BackgroundImageFix" result="effect1_dropShadow_3_1055"/>
<feBlend mode="normal" in="SourceGraphic" in2="effect1_dropShadow_3_1055" result="shape"/>
</filter>
<filter id="filter16_d_3_1055" x="-1" y="4.00001" width="88" height="88" filterUnits="userSpaceOnUse" color-interpolation-filters="sRGB">
<feFlood flood-opacity="0" result="BackgroundImageFix"/>
<feColorMatrix in="SourceAlpha" type="matrix" values="0 0 0 0 0 0 0 0 0 0 0 0 0 0 0 0 0 0 127 0" result="hardAlpha"/>
<feOffset dy="1"/>
<feGaussianBlur stdDeviation="2"/>
<feComposite in2="hardAlpha" operator="out"/>
<feColorMatrix type="matrix" values="0 0 0 0 0 0 0 0 0 0 0 0 0 0 0 0 0 0 0.1 0"/>
<feBlend mode="normal" in2="BackgroundImageFix" result="effect1_dropShadow_3_1055"/>
<feBlend mode="normal" in="SourceGraphic" in2="effect1_dropShadow_3_1055" result="shape"/>
</filter>
<filter id="filter17_d_3_1055" x="5.5" y="11.5" width="75" height="73" filterUnits="userSpaceOnUse" color-interpolation-filters="sRGB">
<feFlood flood-opacity="0" result="BackgroundImageFix"/>
<feColorMatrix in="SourceAlpha" type="matrix" values="0 0 0 0 0 0 0 0 0 0 0 0 0 0 0 0 0 0 127 0" result="hardAlpha"/>
<feOffset dy="1"/>
<feGaussianBlur stdDeviation="2"/>
<feComposite in2="hardAlpha" operator="out"/>
<feColorMatrix type="matrix" values="0 0 0 0 0 0 0 0 0 0 0 0 0 0 0 0 0 0 0.1 0"/>
<feBlend mode="normal" in2="BackgroundImageFix" result="effect1_dropShadow_3_1055"/>
<feBlend mode="normal" in="SourceGraphic" in2="effect1_dropShadow_3_1055" result="shape"/>
</filter>
<filter id="filter18_d_3_1055" x="6.10352e-05" y="3.00001" width="88" height="88" filterUnits="userSpaceOnUse" color-interpolation-filters="sRGB">
<feFlood flood-opacity="0" result="BackgroundImageFix"/>
<feColorMatrix in="SourceAlpha" type="matrix" values="0 0 0 0 0 0 0 0 0 0 0 0 0 0 0 0 0 0 127 0" result="hardAlpha"/>
<feOffset dy="1"/>
<feGaussianBlur stdDeviation="2"/>
<feComposite in2="hardAlpha" operator="out"/>
<feColorMatrix type="matrix" values="0 0 0 0 0 0 0 0 0 0 0 0 0 0 0 0 0 0 0.1 0"/>
<feBlend mode="normal" in2="BackgroundImageFix" result="effect1_dropShadow_3_1055"/>
<feBlend mode="normal" in="SourceGraphic" in2="effect1_dropShadow_3_1055" result="shape"/>
</filter>
<filter id="filter19_d_3_1055" x="6.50006" y="10.5" width="75" height="73" filterUnits="userSpaceOnUse" color-interpolation-filters="sRGB">
<feFlood flood-opacity="0" result="BackgroundImageFix"/>
<feColorMatrix in="SourceAlpha" type="matrix" values="0 0 0 0 0 0 0 0 0 0 0 0 0 0 0 0 0 0 127 0" result="hardAlpha"/>
<feOffset dy="1"/>
<feGaussianBlur stdDeviation="2"/>
<feComposite in2="hardAlpha" operator="out"/>
<feColorMatrix type="matrix" values="0 0 0 0 0 0 0 0 0 0 0 0 0 0 0 0 0 0 0.1 0"/>
<feBlend mode="normal" in2="BackgroundImageFix" result="effect1_dropShadow_3_1055"/>
<feBlend mode="normal" in="SourceGraphic" in2="effect1_dropShadow_3_1055" result="shape"/>
</filter>
<linearGradient id="paint0_linear_3_1055" x1="91.5001" y1="83.7075" x2="162.5" y2="83.7074" gradientUnits="userSpaceOnUse">
<stop stop-color="#84B3B6"/>
<stop offset="1" stop-color="#859EC5"/>
</linearGradient>
<linearGradient id="paint1_linear_3_1055" x1="92.5001" y1="82.7075" x2="163.5" y2="82.7075" gradientUnits="userSpaceOnUse">
<stop stop-color="#84B3B6"/>
<stop offset="1" stop-color="#859EC5"/>
</linearGradient>
<linearGradient id="paint2_linear_3_1055" x1="93.5001" y1="81.7074" x2="164.5" y2="81.7074" gradientUnits="userSpaceOnUse">
<stop stop-color="#84B3B6"/>
<stop offset="1" stop-color="#859EC5"/>
</linearGradient>
<linearGradient id="paint3_linear_3_1055" x1="94.5001" y1="80.7075" x2="165.5" y2="80.7075" gradientUnits="userSpaceOnUse">
<stop stop-color="#84B3B6"/>
<stop offset="1" stop-color="#859EC5"/>
</linearGradient>
<linearGradient id="paint4_linear_3_1055" x1="95.5001" y1="79.7075" x2="166.5" y2="79.7075" gradientUnits="userSpaceOnUse">
<stop stop-color="#84B3B6"/>
<stop offset="1" stop-color="#859EC5"/>
</linearGradient>
<linearGradient id="paint5_linear_3_1055" x1="106.061" y1="59.7075" x2="172" y2="59.7075" gradientUnits="userSpaceOnUse">
<stop stop-color="#84B3B6"/>
<stop offset="1" stop-color="#859EC5"/>
</linearGradient>
<linearGradient id="paint6_linear_3_1055" x1="96.5001" y1="78.7075" x2="167.5" y2="78.7075" gradientUnits="userSpaceOnUse">
<stop stop-color="#84B3B6"/>
<stop offset="1" stop-color="#859EC5"/>
</linearGradient>
<linearGradient id="paint7_linear_3_1055" x1="55.227" y1="74.7649" x2="122.703" y2="74.7649" gradientUnits="userSpaceOnUse">
<stop stop-color="#84B3B6"/>
<stop offset="1" stop-color="#859EC5"/>
</linearGradient>
<linearGradient id="paint8_linear_3_1055" x1="56.227" y1="73.7649" x2="123.703" y2="73.7649" gradientUnits="userSpaceOnUse">
<stop stop-color="#84B3B6"/>
<stop offset="1" stop-color="#859EC5"/>
</linearGradient>
<linearGradient id="paint9_linear_3_1055" x1="57.227" y1="72.7649" x2="124.703" y2="72.7649" gradientUnits="userSpaceOnUse">
<stop stop-color="#84B3B6"/>
<stop offset="1" stop-color="#859EC5"/>
</linearGradient>
<linearGradient id="paint10_linear_3_1055" x1="58.2271" y1="71.7649" x2="125.703" y2="71.7649" gradientUnits="userSpaceOnUse">
<stop stop-color="#84B3B6"/>
<stop offset="1" stop-color="#859EC5"/>
</linearGradient>
<linearGradient id="paint11_linear_3_1055" x1="59.227" y1="70.7649" x2="126.703" y2="70.7649" gradientUnits="userSpaceOnUse">
<stop stop-color="#84B3B6"/>
<stop offset="1" stop-color="#859EC5"/>
</linearGradient>
<linearGradient id="paint12_linear_3_1055" x1="121.466" y1="47.9934" x2="78.8149" y2="72.6177" gradientUnits="userSpaceOnUse">
<stop stop-color="#84B3B6"/>
<stop offset="1" stop-color="#859EC5"/>
</linearGradient>
<linearGradient id="paint13_linear_3_1055" x1="74.529" y1="95.0989" x2="102.441" y2="73.3359" gradientUnits="userSpaceOnUse">
<stop stop-color="#84B3B6"/>
<stop offset="1" stop-color="#859EC5"/>
</linearGradient>
<linearGradient id="paint14_linear_3_1055" x1="96.4545" y1="73.2925" x2="61.0605" y2="73.2925" gradientUnits="userSpaceOnUse">
<stop stop-color="#84B3B6"/>
<stop offset="1" stop-color="#859EC5"/>
</linearGradient>
<linearGradient id="paint15_linear_3_1055" x1="4" y1="50" x2="77" y2="50" gradientUnits="userSpaceOnUse">
<stop stop-color="#84B3B6"/>
<stop offset="1" stop-color="#859EC5"/>
</linearGradient>
<linearGradient id="paint16_linear_3_1055" x1="5" y1="49" x2="78" y2="49" gradientUnits="userSpaceOnUse">
<stop stop-color="#84B3B6"/>
<stop offset="1" stop-color="#859EC5"/>
</linearGradient>
<linearGradient id="paint17_linear_3_1055" x1="6" y1="48" x2="79" y2="48" gradientUnits="userSpaceOnUse">
<stop stop-color="#84B3B6"/>
<stop offset="1" stop-color="#859EC5"/>
</linearGradient>
<linearGradient id="paint18_linear_3_1055" x1="7" y1="47" x2="80" y2="47" gradientUnits="userSpaceOnUse">
<stop stop-color="#84B3B6"/>
<stop offset="1" stop-color="#859EC5"/>
</linearGradient>
<linearGradient id="paint19_linear_3_1055" x1="8.00006" y1="46" x2="81.0001" y2="46" gradientUnits="userSpaceOnUse">
<stop stop-color="#84B3B6"/>
<stop offset="1" stop-color="#859EC5"/>
</linearGradient>
<linearGradient id="paint20_linear_3_1055" x1="10" y1="44" x2="83" y2="44" gradientUnits="userSpaceOnUse">
<stop stop-color="#84B3B6"/>
<stop offset="1" stop-color="#859EC5"/>
</linearGradient>
<clipPath id="clip0_3_1055">
<rect width="180" height="120" fill="white"/>
</clipPath>
</defs>
</svg>
